<svg xmlns="http://www.w3.org/2000/svg" version="1.1" xmlns:xlink="http://www.w3.org/1999/xlink" xmlns:svgjs="http://svgjs.dev/svgjs" width="1000" height="1125" viewBox="0 0 1000 1125"><g transform="matrix(1,0,0,1,0,0)"><svg viewBox="0 0 320 360" data-background-color="#0c1d36" preserveAspectRatio="xMidYMid meet" height="1125" width="1000" xmlns="http://www.w3.org/2000/svg" xmlns:xlink="http://www.w3.org/1999/xlink"><g id="tight-bounds" transform="matrix(1,0,0,1,0,0)"><svg viewBox="0 0 320 360" height="360" width="320"><g><svg></svg></g><g><svg viewBox="0 0 320 360" height="360" width="320"><g><path xmlns="http://www.w3.org/2000/svg" d="M320 141.95l-19.957-19.957v-28.224l-53.812-53.812h-28.223l-19.958-19.957h-76.1l-19.957 19.957h-28.224l-53.812 53.812v28.224l-19.957 19.957v76.104l19.957 19.958v28.223l53.816 53.808h28.224l19.957 19.957h76.104l19.958-19.957h28.223l53.812-53.812v-28.224l19.949-19.957zM244.374 44.437l51.189 51.189v21.887l-73.076-73.076zM295.563 123.849v112.306l-79.408 79.408h-112.306l-79.412-79.412v-112.302l79.412-79.412h112.306zM123.807 24.48h72.39l15.478 15.477h-103.346zM24.437 95.626l51.189-51.189h21.887l-73.076 73.076zM4.484 216.197v-72.394l15.477-15.478v103.342zM75.626 315.563l-51.189-51.189v-21.887l73.076 73.076zM196.197 335.52h-72.39l-15.478-15.477h103.342zM295.563 264.374l-51.189 51.189h-21.887l73.076-73.076zM315.52 216.197l-15.477 15.478v-103.346l15.477 15.478z" fill="#f9cc0b" fill-rule="nonzero" stroke="none" stroke-width="1" stroke-linecap="butt" stroke-linejoin="miter" stroke-miterlimit="10" stroke-dasharray="" stroke-dashoffset="0" font-family="none" font-weight="none" font-size="none" text-anchor="none" style="mix-blend-mode: normal" data-fill-palette-color="tertiary"></path></g><g transform="matrix(1,0,0,1,56,96.82275711159738)"><svg viewBox="0 0 208 166.35448577680523" height="166.35448577680523" width="208"><g><svg viewBox="0 0 208 166.35448577680523" height="166.35448577680523" width="208"><g><svg viewBox="0 0 208 166.35448577680523" height="166.35448577680523" width="208"><g><svg viewBox="0 0 208 166.35448577680523" height="166.35448577680523" width="208"><g id="textblocktransform"><svg viewBox="0 0 208 166.35448577680523" height="166.35448577680523" width="208" id="textblock"><g><svg viewBox="0 0 208 166.35448577680523" height="166.35448577680523" width="208"><g transform="matrix(1,0,0,1,0,0)"><svg width="208" viewBox="1.850000023841858 -35.650001525878906 45.70000076293945 36.55000305175781" height="166.35448577680523" data-palette-color="#f9cc0b"><path d="M1.85-34.75L10.7-34.75 10.7-6.9 21.4-6.9 20.5 0 1.85 0 1.85-34.75ZM37.35-35.65Q40.45-35.65 43.02-34.48 45.6-33.3 47.55-31.3L47.55-31.3 43.45-26.95Q41.9-28.2 40.62-28.78 39.35-29.35 37.8-29.35L37.8-29.35Q35.75-29.35 34.45-28.28 33.15-27.2 32.5-24.58 31.85-21.95 31.85-17.35L31.85-17.35Q31.85-12.55 32.3-10 32.75-7.45 33.7-6.48 34.65-5.5 36.25-5.5L36.25-5.5Q37.85-5.5 39.25-6.4L39.25-6.4 39.25-14 36.4-14 35.55-20.1 47.55-20.1 47.55-2.85Q45.2-1.1 42.22-0.1 39.25 0.9 36.45 0.9L36.45 0.9Q29.3 0.9 26-3.53 22.7-7.95 22.7-17.4L22.7-17.4Q22.7-23.5 24.6-27.6 26.5-31.7 29.77-33.68 33.05-35.65 37.35-35.65L37.35-35.65Z" opacity="1" transform="matrix(1,0,0,1,0,0)" fill="#f9cc0b" class="undefined-text-0" data-fill-palette-color="primary" id="text-0"></path></svg></g></svg></g></svg></g></svg></g></svg></g></svg></g></svg></g></svg></g><defs></defs></svg><rect width="320" height="360" fill="none" stroke="none" visibility="hidden"></rect></g></svg></g></svg>